<?xml version="1.0" encoding="UTF-8" standalone="no"?>
<svg xmlns="http://www.w3.org/2000/svg" width="1200" height="500" viewBox="0 0 1200 500">
  <!-- Transparent Background -->
  <rect width="100%" height="100%" fill="none" />
  <rect x="65" y="115" width="160" height="80" rx="8" fill="#E2E8F0" />
  <rect x="60" y="110" width="160" height="80" rx="8" fill="#FFFFFF" stroke="#E2E8F0" stroke-width="1" />
  <text x="80" y="130.0" font-family="Apple SD Gothic Neo, Arial, sans-serif" font-size="18" fill="#1E293B" text-anchor="start" font-weight="bold">User Query</text>
  <text x="80" y="160.0" font-family="Apple SD Gothic Neo, Arial, sans-serif" font-size="13" fill="#516075" text-anchor="start">자연어 질의 수신</text>
  <rect x="295" y="95" width="230" height="120" rx="8" fill="#E2E8F0" />
  <rect x="290" y="90" width="230" height="120" rx="8" fill="#FFFFFF" stroke="#7C3AED" stroke-width="1" />
  <text x="310" y="110.0" font-family="Apple SD Gothic Neo, Arial, sans-serif" font-size="18" fill="#7C3AED" text-anchor="start" font-weight="bold">AnalysisNode</text>
  <text x="310" y="140.0" font-family="Apple SD Gothic Neo, Arial, sans-serif" font-size="13" fill="#516075" text-anchor="start">의도 분석 &amp; 키워드 최적화</text>
  <text x="310" y="158.2" font-family="Apple SD Gothic Neo, Arial, sans-serif" font-size="13" fill="#516075" text-anchor="start">(gpt-4o-mini 기용)</text>
  <rect x="625" y="25" width="220" height="110" rx="8" fill="#E2E8F0" />
  <rect x="620" y="20" width="220" height="110" rx="8" fill="#FFFFFF" stroke="#E2E8F0" stroke-width="1" />
  <text x="640" y="40.0" font-family="Apple SD Gothic Neo, Arial, sans-serif" font-size="18" fill="#1E293B" text-anchor="start" font-weight="bold">PaperNode</text>
  <text x="640" y="70.0" font-family="Apple SD Gothic Neo, Arial, sans-serif" font-size="13" fill="#516075" text-anchor="start">pgvector RAG 검색</text>
  <text x="640" y="88.2" font-family="Apple SD Gothic Neo, Arial, sans-serif" font-size="13" fill="#516075" text-anchor="start">(Cos 유사도 0.35 필터)</text>
  <rect x="625" y="175" width="220" height="110" rx="8" fill="#E2E8F0" />
  <rect x="620" y="170" width="220" height="110" rx="8" fill="#FFFFFF" stroke="#E2E8F0" stroke-width="1" />
  <text x="640" y="190.0" font-family="Apple SD Gothic Neo, Arial, sans-serif" font-size="18" fill="#1E293B" text-anchor="start" font-weight="bold">WebNode</text>
  <text x="640" y="220.0" font-family="Apple SD Gothic Neo, Arial, sans-serif" font-size="13" fill="#516075" text-anchor="start">Tavily Web Search API</text>
  <text x="640" y="238.2" font-family="Apple SD Gothic Neo, Arial, sans-serif" font-size="13" fill="#516075" text-anchor="start">실시간 동향 수집</text>
  <rect x="945" y="95" width="220" height="120" rx="8" fill="#E2E8F0" />
  <rect x="940" y="90" width="220" height="120" rx="8" fill="#FFFFFF" stroke="#0284C7" stroke-width="1" />
  <text x="960" y="110.0" font-family="Apple SD Gothic Neo, Arial, sans-serif" font-size="18" fill="#0284C7" text-anchor="start" font-weight="bold">SynthesisNode</text>
  <text x="960" y="140.0" font-family="Apple SD Gothic Neo, Arial, sans-serif" font-size="13" fill="#516075" text-anchor="start">크로스 레퍼런스 합성</text>
  <text x="960" y="158.2" font-family="Apple SD Gothic Neo, Arial, sans-serif" font-size="13" fill="#516075" text-anchor="start">(gpt-4o 고성능 종합)</text>
  <rect x="445" y="335" width="320" height="100" rx="8" fill="#E2E8F0" />
  <rect x="440" y="330" width="320" height="100" rx="8" fill="#FFFFFF" stroke="#059669" stroke-width="1" />
  <text x="460" y="350.0" font-family="Apple SD Gothic Neo, Arial, sans-serif" font-size="18" fill="#059669" text-anchor="start" font-weight="bold">PostgresSaver (Checkpointer)</text>
  <text x="460" y="380.0" font-family="Apple SD Gothic Neo, Arial, sans-serif" font-size="13" fill="#516075" text-anchor="start">스레드별 대화 히스토리 DB 자동 백업</text>
  <text x="460" y="398.2" font-family="Apple SD Gothic Neo, Arial, sans-serif" font-size="13" fill="#516075" text-anchor="start">(상태전이 간 대화 맥락 영구 유지)</text>
  <line x1="220" y1="150" x2="290" y2="150" stroke="#16A34A" stroke-width="2" stroke-linecap="round" />
  <polygon points="290,150 279.60769515458674,156.0 279.60769515458674,144.0" fill="#16A34A" />
  <line x1="520" y1="130" x2="620" y2="75" stroke="#4F46E5" stroke-width="2" stroke-linecap="round" />
  <polygon points="620,75 613.7856096652645,85.26554201041256 608.0025846679986,74.75095110629279" fill="#4F46E5" />
  <line x1="520" y1="170" x2="620" y2="225" stroke="#4F46E5" stroke-width="2" stroke-linecap="round" />
  <polygon points="620,225 608.0025846679986,225.2490488937072 613.7856096652645,214.73445798958744" fill="#4F46E5" />
  <line x1="840" y1="75" x2="940" y2="130" stroke="#4F46E5" stroke-width="2" stroke-linecap="round" />
  <polygon points="940,130 928.0025846679986,130.2490488937072 933.7856096652645,119.73445798958744" fill="#4F46E5" />
  <text x="850" y="85.0" font-family="Apple SD Gothic Neo, Arial, sans-serif" font-size="14" fill="#1E293B" text-anchor="start">Merge</text>
  <line x1="840" y1="225" x2="940" y2="170" stroke="#4F46E5" stroke-width="2" stroke-linecap="round" />
  <polygon points="940,170 933.7856096652645,180.26554201041256 928.0025846679986,169.7509511062928" fill="#4F46E5" />
  <text x="850" y="200.0" font-family="Apple SD Gothic Neo, Arial, sans-serif" font-size="14" fill="#1E293B" text-anchor="start">Merge</text>
  <line x1="730" y1="150" x2="730" y2="330" stroke="#E11D48" stroke-width="2" stroke-linecap="round" />
  <polygon points="730,330 724.0,319.60769515458674 736.0,319.60769515458674" fill="#E11D48" />
  <line x1="600" y1="330" x2="600" y2="150" stroke="#E11D48" stroke-width="2" stroke-linecap="round" />
  <polygon points="600,150 606.0,160.39230484541326 594.0,160.39230484541326" fill="#E11D48" />
  <text x="615" y="240.0" font-family="Apple SD Gothic Neo, Arial, sans-serif" font-size="14" fill="#E11D48" text-anchor="start">State Load/Save</text>
</svg>