<?xml version="1.0" encoding="UTF-8" standalone="no"?>
<svg xmlns="http://www.w3.org/2000/svg" width="1200" height="600" viewBox="0 0 1200 600">
  <!-- Transparent Background -->
  <rect width="100%" height="100%" fill="none" />
  <rect x="120" y="30" width="960" height="540" rx="12" fill="#F8FAFC" stroke="#7C3AED" stroke-width="2" />
  <text x="150" y="55.0" font-family="Apple SD Gothic Neo, Arial, sans-serif" font-size="20" fill="#7C3AED" text-anchor="start" font-weight="bold">LangGraph Multi-Agent Engine (Shared State: MultiAgentState)</text>
  <rect x="185" y="255" width="250" height="120" rx="8" fill="#E2E8F0" />
  <rect x="180" y="250" width="250" height="120" rx="8" fill="#FFFFFF" stroke="#E2E8F0" stroke-width="1" />
  <text x="200" y="265.0" font-family="Apple SD Gothic Neo, Arial, sans-serif" font-size="20" fill="#1E293B" text-anchor="start" font-weight="bold">AnalysisNode</text>
  <text x="200" y="300.0" font-family="Apple SD Gothic Neo, Arial, sans-serif" font-size="14" fill="#516075" text-anchor="start">Intent Analysis &amp;</text>
  <text x="200" y="319.6" font-family="Apple SD Gothic Neo, Arial, sans-serif" font-size="14" fill="#516075" text-anchor="start">Dual Query Optimizer</text>
  <rect x="555" y="115" width="250" height="120" rx="8" fill="#E2E8F0" />
  <rect x="550" y="110" width="250" height="120" rx="8" fill="#FFFFFF" stroke="#E2E8F0" stroke-width="1" />
  <text x="570" y="125.0" font-family="Apple SD Gothic Neo, Arial, sans-serif" font-size="20" fill="#1E293B" text-anchor="start" font-weight="bold">PaperNode</text>
  <text x="570" y="160.0" font-family="Apple SD Gothic Neo, Arial, sans-serif" font-size="14" fill="#516075" text-anchor="start">pgvector RAG Search</text>
  <text x="570" y="179.6" font-family="Apple SD Gothic Neo, Arial, sans-serif" font-size="14" fill="#516075" text-anchor="start">with Cos Similarity Guard</text>
  <rect x="555" y="395" width="250" height="120" rx="8" fill="#E2E8F0" />
  <rect x="550" y="390" width="250" height="120" rx="8" fill="#FFFFFF" stroke="#E2E8F0" stroke-width="1" />
  <text x="570" y="405.0" font-family="Apple SD Gothic Neo, Arial, sans-serif" font-size="20" fill="#1E293B" text-anchor="start" font-weight="bold">WebNode</text>
  <text x="570" y="440.0" font-family="Apple SD Gothic Neo, Arial, sans-serif" font-size="14" fill="#516075" text-anchor="start">Tavily Web Search API</text>
  <text x="570" y="459.6" font-family="Apple SD Gothic Neo, Arial, sans-serif" font-size="14" fill="#516075" text-anchor="start">Real-time Market News</text>
  <rect x="925" y="255" width="250" height="120" rx="8" fill="#E2E8F0" />
  <rect x="920" y="250" width="250" height="120" rx="8" fill="#FFFFFF" stroke="#0284C7" stroke-width="1" />
  <text x="940" y="265.0" font-family="Apple SD Gothic Neo, Arial, sans-serif" font-size="20" fill="#0284C7" text-anchor="start" font-weight="bold">SynthesisNode</text>
  <text x="940" y="300.0" font-family="Apple SD Gothic Neo, Arial, sans-serif" font-size="14" fill="#516075" text-anchor="start">Cross-Reference</text>
  <text x="940" y="319.6" font-family="Apple SD Gothic Neo, Arial, sans-serif" font-size="14" fill="#516075" text-anchor="start">Joins &amp; Final Synthesis</text>
  <line x1="60" y1="310" x2="180" y2="310" stroke="#16A34A" stroke-width="3" stroke-linecap="round" />
  <polygon points="180,310 169.60769515458674,316.0 169.60769515458674,304.0" fill="#16A34A" />
  <text x="75" y="280.0" font-family="Apple SD Gothic Neo, Arial, sans-serif" font-size="16" fill="#16A34A" text-anchor="start">User Query</text>
  <line x1="430" y1="280" x2="550" y2="170" stroke="#4F46E5" stroke-width="3" stroke-linecap="round" />
  <polygon points="550,170 546.3936172280795,181.44526117231035 538.2849216858713,172.59941148990146" fill="#4F46E5" />
  <text x="435" y="185.0" font-family="Apple SD Gothic Neo, Arial, sans-serif" font-size="16" fill="#4F46E5" text-anchor="start">Parallel Broadcast</text>
  <line x1="430" y1="340" x2="550" y2="450" stroke="#4F46E5" stroke-width="3" stroke-linecap="round" />
  <polygon points="550,450 538.2849216858713,447.40058851009854 546.3936172280795,438.5547388276897" fill="#4F46E5" />
  <text x="435" y="420.0" font-family="Apple SD Gothic Neo, Arial, sans-serif" font-size="16" fill="#4F46E5" text-anchor="start">Parallel Broadcast</text>
  <line x1="800" y1="170" x2="920" y2="280" stroke="#7C3AED" stroke-width="3" stroke-linecap="round" />
  <polygon points="920,280 908.2849216858713,277.40058851009854 916.3936172280795,268.5547388276897" fill="#7C3AED" />
  <text x="820" y="185.0" font-family="Apple SD Gothic Neo, Arial, sans-serif" font-size="16" fill="#7C3AED" text-anchor="start">Merge Context</text>
  <line x1="800" y1="450" x2="920" y2="340" stroke="#7C3AED" stroke-width="3" stroke-linecap="round" />
  <polygon points="920,340 916.3936172280795,351.4452611723103 908.2849216858713,342.59941148990146" fill="#7C3AED" />
  <text x="820" y="420.0" font-family="Apple SD Gothic Neo, Arial, sans-serif" font-size="16" fill="#7C3AED" text-anchor="start">Merge Context</text>
  <line x1="1170" y1="310" x2="1240" y2="310" stroke="#E11D48" stroke-width="3" stroke-linecap="round" />
  <polygon points="1240,310 1229.6076951545867,316.0 1229.6076951545867,304.0" fill="#E11D48" />
  <text x="1180" y="280.0" font-family="Apple SD Gothic Neo, Arial, sans-serif" font-size="16" fill="#E11D48" text-anchor="start">Yield</text>
</svg>